<svg width="255" height="56" viewBox="0 0 255 56" fill="none" xmlns="http://www.w3.org/2000/svg">
<path d="M228.368 0H146.373H141.34H26.6324C11.9489 0 0 12.5625 0 28C0 43.4375 11.9489 56 26.6324 56H141.34H146.373H228.368C243.051 56 255 43.4375 255 28C255 12.5625 243.051 0 228.368 0ZM141.34 50.7087H26.6324C14.7212 50.7087 5.0329 40.5228 5.0329 28C5.0329 15.4772 14.7212 5.29134 26.6324 5.29134H141.34V50.7087Z" fill="#00A9D1"/>
<path d="M24.1452 16.8882H33.7496C36.0438 16.8882 38.0737 17.3468 39.8353 18.2683C41.5968 19.1899 42.964 20.4863 43.9413 22.1575C44.9185 23.8287 45.405 25.7776 45.405 28C45.405 30.2224 44.9185 32.1713 43.9413 33.8425C42.964 35.5137 41.5968 36.8101 39.8353 37.7317C38.0737 38.6532 36.0438 39.1118 33.7496 39.1118H24.1452V16.8882ZM33.5064 34.892C35.6202 34.892 37.3062 34.2746 38.5644 33.0356C39.8227 31.7965 40.4518 30.1209 40.4518 28.0044C40.4518 25.8879 39.8227 24.2123 38.5644 22.9732C37.3062 21.7342 35.6202 21.1168 33.5064 21.1168H29.0397V34.8964H33.5064V34.892Z" fill="#10A6C9"/>
<path d="M62.5545 39.1118L58.4779 32.9209H58.2346H53.9776V39.1118H49.0873V16.8882H58.2388C60.1094 16.8882 61.7367 17.2189 63.1165 17.8715C64.4964 18.5285 65.5575 19.4589 66.304 20.6671C67.0506 21.8753 67.4197 23.3039 67.4197 24.9531C67.4197 26.6022 67.0422 28.0265 66.2873 29.2214C65.5323 30.4164 64.4586 31.3335 63.0704 31.9685L67.8097 39.1118H62.5545ZM61.3173 22.0781C60.5539 21.4123 59.4341 21.0772 57.9662 21.0772H53.9818V28.8246H57.9662C59.4341 28.8246 60.5539 28.485 61.3173 27.8104C62.0806 27.1357 62.4664 26.1789 62.4664 24.9531C62.4664 23.7052 62.0848 22.7483 61.3173 22.0781Z" fill="#10A6C9"/>
<path d="M73.6226 36.8586C71.9407 35.1036 71.1019 32.5946 71.1019 29.3361V16.8882H75.9922V29.142C75.9922 33.1238 77.5608 35.1124 80.7022 35.1124C82.233 35.1124 83.399 34.6318 84.2042 33.6661C85.0095 32.7049 85.4121 31.1968 85.4121 29.142V16.8882H90.2437V29.3316C90.2437 32.5902 89.4049 35.0992 87.7231 36.8542C86.0413 38.6135 83.6926 39.491 80.6728 39.491C77.6531 39.491 75.3044 38.6179 73.6226 36.8586Z" fill="#10A6C9"/>
<path d="M109.361 27.6515H113.832V36.6688C112.682 37.5771 111.357 38.2782 109.847 38.7633C108.337 39.2483 106.819 39.4953 105.288 39.4953C103.095 39.4953 101.119 39.0014 99.3704 38.0181C97.6173 37.0348 96.2458 35.6679 95.2476 33.9217C94.2495 32.1756 93.7545 30.2045 93.7545 27.9998C93.7545 25.7995 94.2536 23.8241 95.2476 22.0779C96.2416 20.3318 97.6299 18.9649 99.3998 17.9816C101.17 16.9983 103.162 16.5044 105.381 16.5044C107.234 16.5044 108.912 16.8307 110.422 17.4877C111.932 18.1447 113.198 19.0971 114.226 20.345L111.085 23.392C109.575 21.7208 107.754 20.883 105.62 20.883C104.269 20.883 103.074 21.1784 102.025 21.7737C100.977 22.3646 100.163 23.2023 99.5801 24.2827C98.9972 25.363 98.7036 26.602 98.7036 27.9954C98.7036 29.3712 98.9972 30.597 99.5801 31.6773C100.163 32.7576 100.973 33.5998 102.013 34.1995C103.049 34.8036 104.231 35.1034 105.561 35.1034C106.97 35.1034 108.237 34.786 109.365 34.151V27.6515H109.361Z" fill="#10A6C9"/>
<path d="M120.458 38.781C118.898 38.3048 117.644 37.6875 116.7 36.9246L118.361 33.0532C119.267 33.7498 120.345 34.3143 121.591 34.7376C122.84 35.1609 124.086 35.3725 125.336 35.3725C126.724 35.3725 127.752 35.1565 128.414 34.7199C129.077 34.2878 129.413 33.7102 129.413 32.9914C129.413 32.4623 129.215 32.0213 128.825 31.673C128.431 31.3246 127.928 31.0424 127.316 30.8308C126.703 30.6191 125.869 30.3854 124.824 30.1341C123.214 29.7328 121.897 29.3316 120.869 28.9259C119.842 28.5246 118.961 27.8765 118.227 26.9902C117.493 26.0994 117.124 24.9177 117.124 23.4361C117.124 22.1442 117.455 20.9757 118.122 19.9262C118.789 18.8768 119.787 18.0478 121.125 17.4349C122.463 16.822 124.099 16.5133 126.032 16.5133C127.383 16.5133 128.7 16.6809 129.987 17.0204C131.275 17.3599 132.403 17.845 133.368 18.4799L131.858 22.3867C129.903 21.2226 127.953 20.6406 125.999 20.6406C124.631 20.6406 123.616 20.8743 122.962 21.3372C122.308 21.8046 121.981 22.4176 121.981 23.1804C121.981 23.9432 122.358 24.5076 123.113 24.878C123.868 25.2484 125.021 25.6144 126.569 25.9716C128.179 26.3728 129.496 26.7741 130.524 27.1798C131.552 27.581 132.432 28.216 133.166 29.0846C133.9 29.9533 134.269 31.1262 134.269 32.6078C134.269 33.8777 133.934 35.0374 133.259 36.0824C132.583 37.1319 131.572 37.9609 130.222 38.5738C128.872 39.1867 127.232 39.4954 125.298 39.4954C123.633 39.4954 122.018 39.2572 120.458 38.781Z" fill="#10A6C9"/>
<path d="M168.912 16.8882V39.1118H164.894L154.355 25.6189V39.1118H149.523V16.8882H153.57L164.081 30.3811V16.8882H168.912Z" fill="white"/>
<path d="M178.231 38.0003C176.47 37.0037 175.09 35.6368 174.096 33.8907C173.102 32.1445 172.603 30.1823 172.603 27.9996C172.603 25.8214 173.102 23.8547 174.096 22.1086C175.09 20.3625 176.47 18.9911 178.231 17.999C179.993 17.0025 181.973 16.5086 184.166 16.5086C186.36 16.5086 188.335 17.0069 190.084 17.999C191.837 18.9955 193.213 20.3625 194.219 22.1086C195.226 23.8547 195.729 25.817 195.729 27.9996C195.729 30.1779 195.226 32.1445 194.219 33.8907C193.213 35.6368 191.833 37.0081 190.084 38.0003C188.335 38.9924 186.36 39.4907 184.166 39.4907C181.968 39.4951 179.989 38.9968 178.231 38.0003ZM187.547 34.2081C188.553 33.604 189.342 32.7618 189.916 31.6859C190.491 30.6056 190.776 29.3798 190.776 28.004C190.776 26.6283 190.491 25.4025 189.916 24.3221C189.342 23.2418 188.553 22.3996 187.547 21.7999C186.54 21.1958 185.412 20.896 184.166 20.896C182.916 20.896 181.792 21.1958 180.786 21.7999C179.779 22.404 178.991 23.2462 178.416 24.3221C177.841 25.3981 177.556 26.6283 177.556 28.004C177.556 29.3798 177.841 30.6056 178.416 31.6859C178.991 32.7662 179.779 33.6084 180.786 34.2081C181.792 34.8122 182.92 35.1121 184.166 35.1121C185.412 35.1121 186.54 34.8122 187.547 34.2081Z" fill="white"/>
<path d="M203.488 21.0814H196.723V16.8924H215.144V21.0814H208.379V39.116H203.488V21.0814Z" fill="white"/>
<path d="M234.138 34.9846V39.1118H217.773V16.8882H233.748V21.0154H222.634V25.8394H232.448V29.8387H222.634V34.9802H234.138V34.9846Z" fill="white"/>
</svg>
