<svg width="20" height="20" viewBox="0 0 20 20" fill="none" xmlns="http://www.w3.org/2000/svg">
<path d="M4.02262 8.83484C5.62262 11.8221 8.2004 14.2709 11.3448 15.7909L13.7893 13.4687C14.1004 13.1732 14.5337 13.0887 14.9226 13.2048C16.1671 13.5954 17.5004 13.8065 18.8893 13.8065C19.184 13.8065 19.4666 13.9177 19.675 14.1157C19.8833 14.3136 20.0004 14.5821 20.0004 14.8621V18.5565C20.0004 18.8365 19.8833 19.1049 19.675 19.3029C19.4666 19.5009 19.184 19.6121 18.8893 19.6121C13.8796 19.6121 9.07518 17.7215 5.53282 14.3563C1.99047 10.991 0.000396729 6.42678 0.000396729 1.66762C0.000396729 1.38767 0.11746 1.11918 0.325834 0.921226C0.534207 0.723271 0.816823 0.612061 1.11151 0.612061H5.0004C5.29508 0.612061 5.5777 0.723271 5.78607 0.921226C5.99444 1.11918 6.11151 1.38767 6.11151 1.66762C6.11151 2.98706 6.33373 4.25373 6.74484 5.43595C6.86706 5.80539 6.77817 6.21706 6.46706 6.51262L4.02262 8.83484Z" fill="#10A6C9"/>
</svg>
